<svg width="51" height="50" viewBox="0 0 51 50" fill="none" xmlns="http://www.w3.org/2000/svg">
<circle cx="25.5" cy="25" r="25" fill="#0077FF"/>
<path d="M26 10.75C19.7868 10.75 14.75 14.3652 14.75 19.75C14.75 23.8284 19.1394 31.8337 21.7409 34.75H30.2591C32.8606 31.8337 37.25 23.8284 37.25 19.75C37.25 14.3652 32.2132 10.75 26 10.75Z" stroke="white" stroke-width="2" stroke-linecap="round" stroke-linejoin="round"/>
<path d="M26 10.75C22.272 10.75 19.25 14.3652 19.25 19.75C19.25 23.8284 21.8836 31.8337 23.4445 34.75" stroke="white" stroke-width="2" stroke-linecap="round" stroke-linejoin="round"/>
<path d="M26 10.75C29.728 10.75 32.75 14.3652 32.75 19.75C32.75 23.8284 30.1164 31.8337 28.5555 34.75" stroke="white" stroke-width="2" stroke-linecap="round" stroke-linejoin="round"/>
<path d="M26 10.75C24.7573 10.75 23.75 14.3652 23.75 19.75C23.75 23.8284 24.6279 31.8337 25.1482 34.75" stroke="white" stroke-width="2" stroke-linecap="round" stroke-linejoin="round"/>
<path d="M26 10.75C27.2427 10.75 28.25 14.3652 28.25 19.75C28.25 23.8284 27.3721 31.8337 26.8518 34.75" stroke="white" stroke-width="2" stroke-linecap="round" stroke-linejoin="round"/>
<path d="M30.5 34.4775V39.25H21.5V34.4775" stroke="white" stroke-width="2" stroke-linecap="round" stroke-linejoin="round"/>
</svg>
